<svg width="21" height="21" viewBox="0 0 21 21" fill="none" xmlns="http://www.w3.org/2000/svg">
<path d="M10.5 0C4.725 0 0 4.725 0 10.5C0 16.275 4.725 21 10.5 21C16.275 21 21 16.275 21 10.5C21 4.725 16.275 0 10.5 0ZM10.5 19.6C5.483 19.6 1.4 15.517 1.4 10.5C1.4 5.483 5.483 1.4 10.5 1.4C15.517 1.4 19.6 5.483 19.6 10.5C19.6 15.517 15.517 19.6 10.5 19.6Z" fill="white"/>
<path d="M14.9332 6.06702C14.6412 5.77502 14.2332 5.77502 13.9412 6.06702L10.4992 9.50902L7.05719 6.06702C6.76519 5.77502 6.35719 5.77502 6.06519 6.06702C5.77319 6.35902 5.77319 6.76702 6.06519 7.05902L9.50719 10.501L6.06519 13.943C5.77319 14.235 5.77319 14.643 6.06519 14.935C6.18219 15.052 6.35719 15.168 6.53219 15.168C6.70719 15.168 6.88219 15.11 6.99919 14.935L10.4412 11.493L13.8832 14.935C14.0002 15.052 14.1752 15.168 14.3502 15.168C14.5252 15.168 14.7002 15.11 14.8172 14.935C15.1092 14.643 15.1092 14.235 14.8172 13.943L11.4922 10.501L14.9342 7.05902C15.2262 6.76702 15.2262 6.35902 14.9342 6.06702H14.9332Z" fill="white"/>
</svg>
