<svg width="40" height="40" viewBox="0 0 40 40" fill="none" xmlns="http://www.w3.org/2000/svg">
<path d="M26.6666 35V31.6667C26.6666 29.8986 25.9642 28.2029 24.714 26.9526C23.4638 25.7024 21.7681 25 20 25H8.33329C6.56518 25 4.86949 25.7024 3.61925 26.9526C2.36901 28.2029 1.66663 29.8986 1.66663 31.6667V35" stroke="#1981E1" stroke-width="3.33333" stroke-linecap="round" stroke-linejoin="round"/>
<path d="M14.1667 18.3333C17.8486 18.3333 20.8333 15.3486 20.8333 11.6667C20.8333 7.98477 17.8486 5 14.1667 5C10.4848 5 7.5 7.98477 7.5 11.6667C7.5 15.3486 10.4848 18.3333 14.1667 18.3333Z" stroke="#1981E1" stroke-width="3.33333" stroke-linecap="round" stroke-linejoin="round"/>
<path d="M33.3334 13.3334V23.3334" stroke="#1981E1" stroke-width="3.33333" stroke-linecap="round" stroke-linejoin="round"/>
<path d="M38.3334 18.3334H28.3334" stroke="#1981E1" stroke-width="3.33333" stroke-linecap="round" stroke-linejoin="round"/>
</svg>
