<svg width="62" height="62" viewBox="0 0 62 62" fill="none" xmlns="http://www.w3.org/2000/svg">
<g clip-path="url(#clip0)">
<path d="M57.8667 52.8712C57.8667 55.6258 55.6288 57.8667 52.8712 57.8667H9.12581C6.37124 57.8667 4.13038 55.6288 4.13038 52.8712V23.0758H17.5637C20.6637 23.0758 23.0758 20.6637 23.0758 17.5637V4.13037H52.8712C55.6258 4.13037 57.8667 6.36828 57.8667 9.1258V52.8712ZM18.9454 5.51209V17.5667C18.9454 18.2546 18.2575 18.9454 17.5667 18.9454H5.5121L18.9454 5.51209ZM52.8712 -7.82381e-06H18.6L0 18.6V52.8712C0 57.8667 4.13333 62 9.12876 62H52.8742C57.8696 62 62.003 57.8667 62.003 52.8712V9.1258C62.003 4.13037 57.8696 -0.00296021 52.8742 -0.00296021L52.8712 -7.82381e-06Z" fill="#99BBF5"/>
<path d="M23.9378 38.75L17.0499 31.8621C16.1878 31 14.9833 31 14.1212 31.8621C13.2591 32.7242 13.2591 33.9288 14.1212 34.7908L23.9378 44.6075C24.7999 45.4696 26.0045 45.4696 26.8666 44.6075L48.0499 23.4242C48.912 22.5621 48.912 21.3575 48.0499 20.4954C47.1878 19.6333 45.9833 19.6333 45.1212 20.4954L26.8666 38.75C26.0045 39.6121 24.6287 39.6121 23.9378 38.75Z" fill="#99BBF5"/>
</g>
<defs>
<clipPath id="clip0">
<rect width="62" height="62" fill="white"/>
</clipPath>
</defs>
</svg>
