<svg width="59" height="46" viewBox="0 0 59 46" fill="none" xmlns="http://www.w3.org/2000/svg">
<path d="M55.3125 45.125C55.3125 45.125 59 45.125 59 41.4375C59 37.75 55.3125 26.6875 40.5625 26.6875C25.8125 26.6875 22.125 37.75 22.125 41.4375C22.125 45.125 25.8125 45.125 25.8125 45.125H55.3125ZM25.8936 41.4375C25.8664 41.4337 25.8393 41.4288 25.8125 41.4227C25.8162 40.4492 26.4283 37.6246 28.615 35.0802C30.6505 32.6944 34.2274 30.375 40.5625 30.375C46.8939 30.375 50.4708 32.6981 52.51 35.0802C54.6967 37.6246 55.3051 40.4529 55.3125 41.4227L55.283 41.4301C55.2659 41.433 55.2486 41.4355 55.2314 41.4375H25.8936ZM40.5625 19.3125C42.5185 19.3125 44.3943 18.5355 45.7774 17.1524C47.1605 15.7693 47.9375 13.8935 47.9375 11.9375C47.9375 9.98153 47.1605 8.10567 45.7774 6.72259C44.3943 5.33951 42.5185 4.5625 40.5625 4.5625C38.6065 4.5625 36.7307 5.33951 35.3476 6.72259C33.9645 8.10567 33.1875 9.98153 33.1875 11.9375C33.1875 13.8935 33.9645 15.7693 35.3476 17.1524C36.7307 18.5355 38.6065 19.3125 40.5625 19.3125ZM51.625 11.9375C51.625 13.3902 51.3389 14.8288 50.7829 16.1709C50.227 17.5131 49.4121 18.7326 48.3849 19.7599C47.3576 20.7871 46.1381 21.602 44.7959 22.1579C43.4538 22.7139 42.0152 23 40.5625 23C39.1098 23 37.6712 22.7139 36.3291 22.1579C34.9869 21.602 33.7674 20.7871 32.7401 19.7599C31.7129 18.7326 30.898 17.5131 30.3421 16.1709C29.7861 14.8288 29.5 13.3902 29.5 11.9375C29.5 9.00354 30.6655 6.18975 32.7401 4.11513C34.8148 2.04051 37.6285 0.875 40.5625 0.875C43.4965 0.875 46.3102 2.04051 48.3849 4.11513C50.4595 6.18975 51.625 9.00354 51.625 11.9375ZM25.5765 27.72C24.1014 27.2555 22.5809 26.9502 21.0409 26.8092C20.1755 26.7269 19.3067 26.6863 18.4375 26.6875C3.6875 26.6875 0 37.75 0 41.4375C0 43.8971 1.22794 45.125 3.6875 45.125H19.234C18.6873 43.9738 18.4147 42.7117 18.4375 41.4375C18.4375 37.7131 19.8277 33.9076 22.4569 30.729C23.3529 29.6449 24.3965 28.6308 25.5765 27.72ZM18.1425 30.375C15.9601 33.6542 14.7811 37.4986 14.75 41.4375H3.6875C3.6875 40.4787 4.29225 37.6394 6.49 35.0802C8.49969 32.735 11.9918 30.4487 18.1425 30.3787V30.375ZM5.53125 13.7812C5.53125 10.8473 6.69676 8.0335 8.77138 5.95888C10.846 3.88426 13.6598 2.71875 16.5938 2.71875C19.5277 2.71875 22.3415 3.88426 24.4161 5.95888C26.4907 8.0335 27.6562 10.8473 27.6562 13.7812C27.6562 16.7152 26.4907 19.529 24.4161 21.6036C22.3415 23.6782 19.5277 24.8437 16.5938 24.8437C13.6598 24.8437 10.846 23.6782 8.77138 21.6036C6.69676 19.529 5.53125 16.7152 5.53125 13.7812ZM16.5938 6.40625C14.6378 6.40625 12.7619 7.18326 11.3788 8.56634C9.99576 9.94942 9.21875 11.8253 9.21875 13.7812C9.21875 15.7372 9.99576 17.6131 11.3788 18.9962C12.7619 20.3792 14.6378 21.1562 16.5938 21.1562C18.5497 21.1562 20.4256 20.3792 21.8087 18.9962C23.1917 17.6131 23.9688 15.7372 23.9688 13.7812C23.9688 11.8253 23.1917 9.94942 21.8087 8.56634C20.4256 7.18326 18.5497 6.40625 16.5938 6.40625Z" fill="#1981E1"/>
</svg>
