<svg width="58" height="58" viewBox="0 0 58 58" fill="none" xmlns="http://www.w3.org/2000/svg">
<path d="M25.375 30.0694L20.6806 25.375L18.125 27.9306L25.375 35.1806L39.875 20.6806L37.3194 18.125L25.375 30.0694Z" fill="#1981E1"/>
<path d="M29 54.375L17.806 48.4064C14.6148 46.7087 11.9461 44.174 10.0864 41.0744C8.22672 37.9747 7.24617 34.4272 7.25001 30.8125V7.25C7.25097 6.28888 7.6332 5.36741 8.31281 4.6878C8.99242 4.00819 9.9139 3.62596 10.875 3.625H47.125C48.0861 3.62596 49.0076 4.00819 49.6872 4.6878C50.3668 5.36741 50.7491 6.28888 50.75 7.25V30.8125C50.7539 34.4272 49.7733 37.9747 47.9136 41.0744C46.0539 44.174 43.3852 46.7087 40.194 48.4064L29 54.375ZM10.875 7.25V30.8125C10.872 33.7701 11.6745 36.6728 13.1964 39.2088C14.7183 41.7449 16.9021 43.8186 19.5134 45.2074L29 50.2661L38.4866 45.2092C41.0982 43.8203 43.2822 41.7463 44.8041 39.2099C46.326 36.6735 47.1283 33.7705 47.125 30.8125V7.25H10.875Z" fill="#1981E1"/>
</svg>
