<svg width="58" height="58" viewBox="0 0 58 58" fill="none" xmlns="http://www.w3.org/2000/svg">
<path d="M28.9999 17.0375C29.641 17.0375 30.2558 16.7828 30.7091 16.3295C31.1624 15.8762 31.4171 15.2614 31.4171 14.6204C31.4171 13.9793 31.1624 13.3645 30.7091 12.9112C30.2558 12.4579 29.641 12.2032 28.9999 12.2032C28.3588 12.2032 27.744 12.4579 27.2907 12.9112C26.8374 13.3645 26.5828 13.9793 26.5828 14.6204C26.5828 15.2614 26.8374 15.8762 27.2907 16.3295C27.744 16.7828 28.3588 17.0375 28.9999 17.0375Z" fill="#1981E1"/>
<path d="M46.4004 38.686V23.2H46.6701C49.2598 23.2 50.3241 19.8737 48.2071 18.3744L31.2392 6.3336C30.5854 5.8696 29.8035 5.62035 29.0018 5.62035C28.2001 5.62035 27.4183 5.8696 26.7645 6.3336L9.79367 18.3744C7.68537 19.8737 8.74097 23.2 11.3307 23.2H11.6004V38.686C9.85747 39.8054 8.70037 41.76 8.70037 43.9843V47.85C8.70037 48.2346 8.85314 48.6034 9.12507 48.8753C9.39699 49.1472 9.76581 49.3 10.1504 49.3H47.8504C48.2349 49.3 48.6037 49.1472 48.8757 48.8753C49.1476 48.6034 49.3004 48.2346 49.3004 47.85V43.9843C49.3004 41.76 48.1462 39.8054 46.4004 38.6889V38.686ZM28.4436 8.7C28.6068 8.58439 28.8018 8.5223 29.0018 8.5223C29.2018 8.5223 29.3969 8.58439 29.5601 8.7L45.9132 20.3H12.0905L28.4436 8.7ZM43.5004 23.2V37.7174C43.3402 37.7055 43.1796 37.6997 43.019 37.7H37.7004V23.2H43.5004ZM14.5004 37.7174V23.2H20.3004V37.7H14.9847C14.8231 37.6996 14.6615 37.7054 14.5004 37.7174ZM14.9847 40.6H43.019C44.8866 40.6 46.4004 42.1138 46.4004 43.9843V46.4H11.6004V43.9843C11.6004 42.1138 13.1171 40.6 14.9847 40.6ZM27.5504 37.7H23.2004V23.2H27.5504V37.7ZM30.4504 37.7V23.2H34.8004V37.7H30.4504Z" fill="#1981E1"/>
</svg>
