<svg width="38" height="42" viewBox="0 0 38 42" fill="none" xmlns="http://www.w3.org/2000/svg">
<rect x="1" y="1" width="36" height="40" rx="4" stroke="#1981E1" stroke-width="2"/>
<path d="M14 30H11C10.4696 30 9.96086 29.7893 9.58579 29.4142C9.21071 29.0391 9 28.5304 9 28V21C9 20.4696 9.21071 19.9609 9.58579 19.5858C9.96086 19.2107 10.4696 19 11 19H14M21 17V13C21 12.2044 20.6839 11.4413 20.1213 10.8787C19.5587 10.3161 18.7956 10 18 10L14 19V30H25.28C25.7623 30.0055 26.2304 29.8364 26.5979 29.524C26.9654 29.2116 27.2077 28.7769 27.28 28.3L28.66 19.3C28.7035 19.0134 28.6842 18.7207 28.6033 18.4423C28.5225 18.1638 28.3821 17.9063 28.1919 17.6875C28.0016 17.4687 27.7661 17.2939 27.5016 17.1752C27.2371 17.0565 26.9499 16.9967 26.66 17H21Z" stroke="#1981E1" stroke-width="2" stroke-linecap="round" stroke-linejoin="round"/>
</svg>
