<svg width="167" height="56" viewBox="0 0 167 56" fill="none" xmlns="http://www.w3.org/2000/svg">
<path d="M20.3381 36.2394C19.6146 37.2103 18.1335 39.2093 17.9964 39.4377C17.9964 39.4377 12.6278 36.9819 11.8853 38.6381C11.1428 40.2944 17.0221 40.6371 17.9964 42.2934C18.9707 43.9497 18.7561 45.4767 17.9964 47.2623C15.3352 53.5175 4.39692 48.5942 4.68897 48.0619C4.98102 47.5296 7.08774 44.8635 7.08774 44.8635C7.08774 44.8635 13.0275 48.0619 13.8271 46.0629C14.6267 44.0639 6.91639 44.9206 7.08774 39.7804C7.25908 34.6402 13.4327 33.2056 20.3381 36.2394Z" fill="#0FB7DE"/>
<path fill-rule="evenodd" clip-rule="evenodd" d="M22.6508 49.2263C25.9573 51.9955 31.1766 51.2088 34.3084 47.4693C37.4401 43.7298 37.2985 38.4534 33.9919 35.6843C30.6854 32.9152 25.4661 33.7018 22.3343 37.4413C19.2026 41.1809 19.3442 46.4572 22.6508 49.2263ZM25.6193 45.6817C27.1949 47.0011 29.6819 46.6263 31.1741 44.8444C32.6664 43.0626 32.5989 40.5484 31.0234 39.2289C29.4478 37.9095 26.9608 38.2843 25.4686 40.0662C23.9763 41.848 24.0438 44.3622 25.6193 45.6817Z" fill="#0FB7DE"/>
<path d="M39.7567 34.8115H44.6355L43.3219 43.4357C43.1505 44.9206 44.0644 45.606 44.6355 45.7773C45.2066 45.9487 47.7767 46.4056 48.5763 43.4928C49.3759 40.58 50.1184 34.8115 50.1184 34.8115H55.2015L52.6885 50.118H47.3198L47.6054 48.2332C45.2396 50.5749 41.2659 51.0318 38.8429 48.9186C36.42 46.8054 39.7567 34.8115 39.7567 34.8115Z" fill="#0FB7DE"/>
<path d="M69.8555 36.2965L68.4277 39.0951C66.035 37.4148 61.8596 37.039 61.6312 38.4668C61.4027 39.8947 65.7434 40.9798 65.7434 40.9798C65.7434 40.9798 70.5409 42.2934 69.8555 46.5198C69.1701 50.7462 65.3436 50.2322 62.8877 50.0609C60.4318 49.8895 56.9136 47.9363 56.7765 47.8906C56.6394 47.8449 57.7855 45.8916 58.547 44.9778C60.1413 46.3447 63.5159 47.2052 63.5159 47.2052C63.5159 47.2052 65.9147 47.7192 65.9718 45.606C66.0289 43.4928 59.2324 43.3215 58.2044 40.4658C57.1763 37.6102 58.4899 35.7253 60.6602 35.04C62.8306 34.3547 66.9873 34.1588 69.8555 36.2965Z" fill="#07337F"/>
<path d="M162.448 36.2965L161.02 39.0951C158.627 37.4148 154.452 37.039 154.224 38.4668C153.995 39.8947 158.336 40.9798 158.336 40.9798C158.336 40.9798 163.133 42.2934 162.448 46.5198C161.763 50.7462 157.936 50.2322 155.48 50.0609C153.024 49.8895 149.506 47.9363 149.369 47.8906C149.232 47.8449 150.378 45.8916 151.139 44.9778C152.734 46.3447 156.108 47.2052 156.108 47.2052C156.108 47.2052 158.507 47.7192 158.564 45.606C158.621 43.4928 151.825 43.3215 150.797 40.4658C149.769 37.6102 151.082 35.7253 153.253 35.04C155.423 34.3547 159.58 34.1588 162.448 36.2965Z" fill="#07337F"/>
<path d="M83.677 34.6403V37.6102H75.3955V40.9227H82.9345V43.8927H75.3955V47.4908H83.677V50.2323H71.6832V34.6403H83.677Z" fill="#07337F"/>
<path d="M99.6118 36.9819L97.6128 39.4378C97.6128 39.4378 96.4134 37.7244 93.2151 37.6101C90.0167 37.4959 88.5317 40.6943 88.5317 42.4077C88.5317 44.1211 89.617 46.3485 91.7301 46.9196C93.8433 47.4908 96.4705 46.3485 96.4705 46.3485V42.4077H99.6118V48.2904C99.6118 48.2904 96.9274 50.8605 92.0157 50.3465C87.1039 49.8324 85.0477 45.3776 85.0478 42.4077C85.0478 39.4378 86.0188 35.8967 91.7301 34.8687C97.4415 33.8406 99.6118 36.9819 99.6118 36.9819Z" fill="#07337F"/>
<path d="M105.323 34.526H101.439V44.578C101.439 45.8345 102.582 50.4607 108.464 50.4607C114.347 50.4607 115.775 46.0058 115.775 44.578V34.526H112.005V44.578C112.005 45.0349 111.434 47.2623 108.464 47.2623C105.494 47.2623 105.323 45.1491 105.323 44.578V34.526Z" fill="#07337F"/>
<path fill-rule="evenodd" clip-rule="evenodd" d="M118.231 34.8115V50.1751C119.411 50.2512 121.772 50.3578 121.772 50.1751V45.8344H125.142L127.597 50.1751H131.71L128.397 45.2633C128.397 45.2633 131.31 43.607 131.31 39.7233C131.31 35.8396 127.997 34.8115 127.026 34.8115H118.231ZM125.655 37.4388H121.6V42.579H125.655C127.075 42.579 128.226 41.4283 128.226 40.0089C128.226 38.5895 127.075 37.4388 125.655 37.4388Z" fill="#07337F"/>
<path fill-rule="evenodd" clip-rule="evenodd" d="M140.905 50.4607C145.573 50.4607 149.358 46.9064 149.358 42.5219C149.358 38.1374 145.573 34.5831 140.905 34.5831C136.236 34.5831 132.452 38.1374 132.452 42.5219C132.452 46.9064 136.236 50.4607 140.905 50.4607ZM140.905 47.2623C143.681 47.2623 145.931 45.1399 145.931 42.5219C145.931 39.9038 143.681 37.7815 140.905 37.7815C138.129 37.7815 135.879 39.9038 135.879 42.5219C135.879 45.1399 138.129 47.2623 140.905 47.2623Z" fill="#07337F"/>
<path d="M69.6271 4.6731H96.242V26.6047C96.242 29.1281 94.1964 31.1738 91.673 31.1738H74.1962C71.6728 31.1738 69.6271 29.1281 69.6271 26.6047V4.6731Z" fill="#0B317F"/>
<path d="M86.7685 11.4125L83.0773 17.6984L90.5095 17.892" stroke="#99E1F3" stroke-width="3.42681" stroke-linecap="round" stroke-linejoin="round"/>
<path d="M79.3079 11.4125L82.9991 17.6984L75.567 17.892" stroke="#1981E1" stroke-width="3.42681" stroke-linecap="round" stroke-linejoin="round"/>
<path d="M79.5078 24.1488L83.1059 17.8092L86.9896 24.1488" stroke="#0FB7DF" stroke-width="3.42681" stroke-linecap="round" stroke-linejoin="round"/>
</svg>
